<?xml version="1.0" standalone="no"?><!DOCTYPE svg PUBLIC "-//W3C//DTD SVG 1.1//EN" "http://www.w3.org/Graphics/SVG/1.1/DTD/svg11.dtd"><svg t="1752421828081" class="icon" viewBox="0 0 1024 1024" version="1.1" xmlns="http://www.w3.org/2000/svg" p-id="43324" xmlns:xlink="http://www.w3.org/1999/xlink" width="200" height="200"><path d="M102.4 204.8l179.2-148.48C209.92 92.16 151.04 143.36 102.4 204.8z" fill="#9953C8" p-id="43325"></path><path d="M281.6 56.32L102.4 204.8c-10.24 12.8-17.92 28.16-28.16 40.96l250.88-212.48c-15.36 7.68-30.72 15.36-43.52 23.04z" fill="#9853C8" p-id="43326"></path><path d="M327.68 35.84L74.24 245.76c-7.68 10.24-12.8 23.04-20.48 33.28L360.96 20.48c-10.24 5.12-23.04 10.24-33.28 15.36z" fill="#9752C8" p-id="43327"></path><path d="M363.52 23.04L56.32 281.6c-5.12 10.24-10.24 20.48-12.8 30.72L394.24 15.36c-10.24 0-20.48 2.56-30.72 7.68z" fill="#9652C8" p-id="43328"></path><path d="M394.24 15.36L40.96 309.76c-2.56 7.68-7.68 17.92-10.24 25.6L422.4 7.68c-7.68 2.56-17.92 5.12-28.16 7.68z" fill="#9551C8" p-id="43329"></path><path d="M422.4 7.68L30.72 337.92c-2.56 7.68-7.68 17.92-10.24 25.6L448 5.12c-7.68 0-15.36 2.56-25.6 2.56z" fill="#9451C9" p-id="43330"></path><path d="M448 5.12L20.48 363.52c-2.56 7.68-5.12 15.36-5.12 23.04L473.6 2.56c-7.68 0-15.36 0-25.6 2.56z" fill="#9351C9" p-id="43331"></path><path d="M473.6 2.56L15.36 386.56c-2.56 7.68-5.12 15.36-5.12 23.04l486.4-409.6c-7.68 0-15.36 0-23.04 2.56z" fill="#9250C9" p-id="43332"></path><path d="M496.64 0L10.24 407.04c-2.56 7.68-2.56 12.8-2.56 20.48L519.68 0h-23.04z" fill="#9150C9" p-id="43333"></path><path d="M522.24 0h-2.56L7.68 430.08c0 7.68-2.56 12.8-2.56 20.48L540.16 0h-17.92z" fill="#9050C9" p-id="43334"></path><path d="M540.16 0L5.12 450.56c0 7.68-2.56 12.8-2.56 20.48L558.08 2.56c-5.12 0-12.8 0-17.92-2.56z" fill="#8F4FC9" p-id="43335"></path><path d="M558.08 2.56L2.56 471.04v17.92L578.56 5.12c-7.68-2.56-12.8-2.56-20.48-2.56z" fill="#8E4FC9" p-id="43336"></path><path d="M578.56 5.12L0 488.96v17.92L596.48 7.68c-5.12-2.56-12.8-2.56-17.92-2.56z" fill="#8D4EC9" p-id="43337"></path><path d="M596.48 7.68L0 506.88v17.92l281.6-235.52 7.68-7.68L614.4 10.24c-5.12 0-12.8-2.56-17.92-2.56zM281.6 289.28z" fill="#8C4ECA" p-id="43338"></path><path d="M291.84 281.6l-10.24 7.68zM614.4 10.24L0 524.8v17.92L632.32 15.36c-7.68-2.56-12.8-2.56-17.92-5.12zM312.32 281.6L281.6 307.2l30.72-25.6z" fill="#8B4ECA" p-id="43339"></path><path d="M632.32 15.36L281.6 307.2 2.56 542.72v17.92L281.6 325.12l51.2-43.52L647.68 17.92c-5.12 0-10.24-2.56-15.36-2.56z" fill="#8A4DCA" p-id="43340"></path><path d="M332.8 281.6l-51.2 43.52 51.2-43.52zM647.68 17.92L332.8 281.6l-51.2 43.52L2.56 560.64c0 5.12 0 10.24 2.56 17.92L281.6 343.04l74.24-61.44L663.04 23.04c-5.12-2.56-10.24-2.56-15.36-5.12z" fill="#894DCA" p-id="43341"></path><path d="M355.84 281.6L281.6 343.04l74.24-61.44zM663.04 23.04L355.84 281.6 281.6 343.04 5.12 576c0 5.12 2.56 10.24 2.56 15.36l273.92-230.4 94.72-79.36 302.08-253.44c-5.12-2.56-10.24-2.56-15.36-5.12zM376.32 281.6L281.6 360.96l94.72-79.36z" fill="#884CCA" p-id="43342"></path><path d="M678.4 28.16L376.32 281.6 281.6 360.96l-273.92 230.4c0 5.12 2.56 10.24 2.56 15.36L281.6 378.88l2.56-2.56 115.2-97.28 294.4-248.32c-5.12 0-10.24 0-15.36-2.56zM281.6 378.88h2.56z" fill="#874CCA" p-id="43343"></path><path d="M399.36 281.6l-115.2 97.28zM693.76 33.28L399.36 281.6l-115.2 97.28H281.6l-271.36 230.4c0 5.12 2.56 10.24 2.56 15.36L281.6 396.8l138.24-115.2 289.28-243.2c-5.12 0-10.24-2.56-15.36-5.12zM419.84 281.6L281.6 396.8l138.24-115.2z" fill="#864CCA" p-id="43344"></path><path d="M709.12 38.4L12.8 624.64c0 5.12 2.56 10.24 5.12 15.36L721.92 46.08c-5.12-2.56-7.68-5.12-12.8-7.68zM440.32 281.6L281.6 414.72l158.72-133.12z" fill="#854BCA" p-id="43345"></path><path d="M721.92 46.08l-281.6 235.52-158.72 133.12L15.36 637.44c0 5.12 2.56 10.24 5.12 15.36L281.6 432.64l181.76-151.04 273.92-230.4c-5.12 0-10.24-2.56-15.36-5.12z" fill="#844BCB" p-id="43346"></path><path d="M463.36 281.6L281.6 432.64l181.76-151.04z" fill="#834BCB" p-id="43347"></path><path d="M737.28 51.2l-273.92 230.4-181.76 151.04L20.48 652.8c2.56 5.12 2.56 10.24 5.12 15.36l256-215.04 202.24-171.52 266.24-222.72c-5.12-2.56-10.24-5.12-12.8-7.68zM483.84 281.6L281.6 453.12l202.24-171.52z" fill="#834BCB" p-id="43348"></path><path d="M750.08 58.88L483.84 281.6 281.6 453.12 23.04 668.16c2.56 5.12 2.56 10.24 5.12 12.8l253.44-212.48 225.28-189.44 256-215.04c-5.12 0-7.68-2.56-12.8-5.12z" fill="#824ACB" p-id="43349"></path><path d="M506.88 281.6L281.6 471.04l225.28-189.44z" fill="#814ACB" p-id="43350"></path><path d="M762.88 66.56l-256 215.04-225.28 189.44-253.44 212.48c2.56 5.12 2.56 10.24 5.12 12.8l248.32-207.36 133.12-112.64 84.48-84.48c7.68-7.68 15.36-7.68 23.04-5.12l5.12-5.12 248.32-207.36c-5.12-2.56-7.68-5.12-12.8-7.68z" fill="#814ACB" p-id="43351"></path><path d="M522.24 286.72l5.12-5.12-5.12 5.12zM414.72 376.32L281.6 488.96l133.12-112.64z" fill="#8049CB" p-id="43352"></path><path d="M33.28 696.32c2.56 5.12 2.56 10.24 5.12 12.8l243.2-202.24 20.48-17.92 112.64-112.64-133.12 112.64-248.32 207.36zM775.68 74.24L527.36 281.6l-5.12 5.12c2.56 0 7.68 2.56 10.24 5.12l2.56 2.56 15.36-12.8 238.08-199.68c-5.12-2.56-7.68-5.12-12.8-7.68zM535.04 294.4l12.8-12.8-12.8 12.8z" fill="#8049CB" p-id="43353"></path><path d="M302.08 488.96l-20.48 17.92 20.48-17.92zM302.08 488.96L38.4 709.12c2.56 5.12 2.56 7.68 5.12 12.8l240.64-202.24c-2.56-7.68 0-15.36 7.68-20.48l10.24-10.24z" fill="#7F49CB" p-id="43354"></path><path d="M545.28 304.64l25.6-23.04-25.6 23.04zM284.16 519.68l-2.56 5.12 2.56-5.12zM788.48 81.92L547.84 281.6l-15.36 12.8 10.24 10.24 25.6-23.04 230.4-192c-2.56-2.56-7.68-5.12-10.24-7.68zM284.16 519.68l-2.56 5.12-235.52 197.12c2.56 5.12 5.12 7.68 5.12 12.8l230.4-192 10.24-10.24c-2.56-2.56-5.12-7.68-7.68-12.8zM291.84 532.48l-10.24 10.24 10.24-10.24zM552.96 312.32l38.4-30.72-38.4 30.72z" fill="#7E49CB" p-id="43355"></path><path d="M801.28 89.6l-230.4 192-25.6 23.04 10.24 10.24 38.4-30.72 220.16-184.32c-5.12-5.12-10.24-7.68-12.8-10.24zM281.6 542.72l-230.4 192c2.56 5.12 5.12 7.68 5.12 12.8l222.72-186.88 20.48-17.92-10.24-10.24-7.68 10.24zM302.08 542.72l-20.48 17.92 20.48-17.92z" fill="#7D48CB" p-id="43356"></path><path d="M563.2 322.56l51.2-40.96-51.2 40.96zM811.52 97.28L591.36 281.6l-38.4 30.72 10.24 10.24 51.2-40.96 209.92-176.64c-5.12-2.56-7.68-5.12-12.8-7.68zM281.6 560.64l-222.72 186.88c2.56 5.12 5.12 7.68 7.68 12.8l217.6-181.76 30.72-25.6-10.24-10.24-23.04 17.92z" fill="#7C48CC" p-id="43357"></path><path d="M312.32 552.96l-30.72 25.6 30.72-25.6zM573.44 332.8l56.32-46.08-56.32 46.08zM821.76 104.96L614.4 281.6l-51.2 40.96 10.24 10.24 56.32-46.08 204.8-171.52c-5.12-2.56-7.68-5.12-12.8-10.24zM281.6 578.56l-217.6 181.76c2.56 5.12 5.12 7.68 7.68 12.8l209.92-176.64 40.96-33.28-10.24-10.24-30.72 25.6z" fill="#7B47CC" p-id="43358"></path><path d="M637.44 296.96l7.68 10.24 207.36-174.08c-2.56-2.56-7.68-5.12-10.24-10.24l-204.8 174.08zM583.68 343.04l53.76-46.08-53.76 46.08zM322.56 563.2L281.6 596.48l40.96-33.28z" fill="#7A47CC" p-id="43359"></path><path d="M593.92 353.28l35.84-30.72 17.92-15.36-10.24-10.24-53.76 46.08z" fill="#7A47CC" p-id="43360"></path><path d="M834.56 115.2l-204.8 171.52-56.32 46.08 10.24 10.24 53.76-46.08L844.8 122.88c-2.56-2.56-7.68-5.12-10.24-7.68zM281.6 596.48l-209.92 176.64c2.56 5.12 5.12 7.68 7.68 12.8l209.92-174.08 43.52-35.84-10.24-12.8-40.96 33.28zM647.68 307.2l-17.92 15.36z" fill="#7A47CC" p-id="43361"></path><path d="M332.8 573.44l-46.08 35.84 46.08-35.84zM629.76 322.56l-35.84 30.72zM855.04 133.12L647.68 307.2l-15.36 12.8-38.4 30.72 10.24 10.24 53.76-43.52 209.92-176.64c-5.12-2.56-10.24-5.12-12.8-7.68zM286.72 609.28L76.8 783.36c2.56 5.12 5.12 7.68 7.68 12.8l209.92-176.64 46.08-38.4-7.68-7.68-46.08 35.84zM340.48 581.12l-43.52 38.4 43.52-38.4zM604.16 363.52l51.2-46.08-51.2 46.08z" fill="#7947CC" p-id="43362"></path><path d="M865.28 143.36l-209.92 176.64-53.76 43.52 10.24 10.24 51.2-43.52L872.96 153.6c0-5.12-5.12-7.68-7.68-10.24zM296.96 619.52l-209.92 176.64c2.56 5.12 5.12 7.68 7.68 10.24l209.92-176.64 46.08-38.4-10.24-10.24-43.52 38.4zM350.72 591.36l-46.08 38.4 46.08-38.4zM611.84 371.2l53.76-43.52-53.76 43.52z" fill="#7846CC" p-id="43363"></path><path d="M875.52 151.04L665.6 327.68l-51.2 43.52 10.24 10.24 51.2-43.52 209.92-176.64c-5.12-2.56-7.68-5.12-10.24-10.24zM304.64 629.76l-209.92 176.64c2.56 5.12 5.12 7.68 7.68 12.8l212.48-176.64 46.08-38.4-10.24-10.24-46.08 35.84zM622.08 381.44l51.2-40.96-51.2 40.96z" fill="#7746CC" p-id="43364"></path><path d="M360.96 601.6L314.88 640l46.08-38.4z" fill="#7746CC" p-id="43365"></path><path d="M885.76 161.28l-209.92 176.64-51.2 43.52 10.24 10.24 51.2-40.96 212.48-176.64c-7.68-5.12-10.24-7.68-12.8-12.8zM314.88 640L102.4 819.2c2.56 2.56 5.12 7.68 7.68 10.24l212.48-179.2 48.64-40.96-10.24-10.24-46.08 40.96z" fill="#7646CC" p-id="43366"></path><path d="M371.2 611.84l-48.64 40.96 48.64-40.96zM632.32 391.68l51.2-40.96-51.2 40.96zM893.44 171.52l-212.48 176.64-51.2 40.96 10.24 10.24 48.64-40.96 212.48-176.64c0-2.56-2.56-5.12-7.68-10.24zM322.56 652.8l-212.48 179.2c2.56 2.56 5.12 7.68 7.68 10.24l212.48-179.2 48.64-40.96-10.24-10.24-46.08 40.96z" fill="#7545CC" p-id="43367"></path><path d="M642.56 401.92l48.64-40.96-48.64 40.96zM381.44 622.08L332.8 663.04l48.64-40.96zM903.68 181.76l-212.48 179.2-48.64 40.96 10.24 10.24 48.64-40.96 212.48-176.64c-5.12-5.12-7.68-7.68-10.24-12.8z" fill="#7345CD" p-id="43368"></path><path d="M332.8 663.04l-212.48 179.2 7.68 7.68 212.48-179.2 48.64-40.96-10.24-10.24-46.08 43.52zM391.68 632.32l-51.2 40.96 51.2-40.96z" fill="#7345CD" p-id="43369"></path><path d="M652.8 412.16l48.64-40.96-48.64 40.96zM911.36 194.56l-212.48 176.64-48.64 40.96 10.24 10.24 46.08-38.4L921.6 204.8c-2.56-5.12-7.68-7.68-10.24-10.24zM340.48 673.28l-212.48 179.2c2.56 2.56 5.12 7.68 10.24 10.24l212.48-176.64 51.2-43.52-10.24-10.24-51.2 40.96zM399.36 640l-48.64 43.52 48.64-43.52z" fill="#7244CD" p-id="43370"></path><path d="M663.04 422.4l46.08-40.96-46.08 40.96zM921.6 204.8l-209.92 176.64-46.08 38.4 10.24 10.24 46.08-38.4 209.92-176.64c-5.12-2.56-7.68-7.68-10.24-10.24zM350.72 683.52l-212.48 176.64c2.56 2.56 5.12 7.68 10.24 10.24l212.48-176.64 51.2-43.52-12.8-10.24-48.64 43.52zM670.72 430.08l48.64-38.4-48.64 38.4zM409.6 650.24l-51.2 43.52 51.2-43.52z" fill="#7144CD" p-id="43371"></path><path d="M929.28 215.04l-209.92 176.64-46.08 38.4 10.24 10.24 46.08-38.4 209.92-176.64c-5.12-2.56-7.68-5.12-10.24-10.24zM358.4 693.76L148.48 870.4c2.56 2.56 7.68 5.12 10.24 10.24l209.92-176.64 51.2-43.52-10.24-10.24-51.2 43.52zM680.96 440.32l46.08-38.4-46.08 38.4z" fill="#7044CD" p-id="43372"></path><path d="M419.84 660.48l-51.2 43.52 51.2-43.52zM936.96 227.84l-209.92 176.64-46.08 38.4 10.24 10.24 43.52-38.4 207.36-174.08c0-5.12-2.56-10.24-5.12-12.8zM368.64 704l-209.92 176.64c2.56 2.56 7.68 5.12 10.24 10.24l209.92-174.08 53.76-43.52-10.24-10.24-53.76 40.96z" fill="#6F43CD" p-id="43373"></path><path d="M430.08 670.72l-53.76 43.52 53.76-43.52zM691.2 450.56l46.08-35.84-46.08 35.84zM944.64 238.08l-207.36 174.08-46.08 38.4 10.24 10.24 43.52-35.84 207.36-174.08c-2.56-5.12-5.12-7.68-7.68-12.8zM376.32 714.24l-209.92 174.08c5.12 5.12 7.68 7.68 12.8 10.24l207.36-174.08 53.76-46.08-10.24-10.24-53.76 46.08zM440.32 680.96l-53.76 46.08 53.76-46.08zM701.44 460.8l43.52-35.84-43.52 35.84z" fill="#6E43CD" p-id="43374"></path><path d="M952.32 250.88l-207.36 174.08-43.52 35.84 10.24 10.24 35.84-30.72 212.48-176.64c-2.56-5.12-5.12-10.24-7.68-12.8zM386.56 727.04L179.2 898.56c2.56 2.56 7.68 5.12 10.24 10.24l204.8-171.52 56.32-46.08-10.24-10.24-53.76 46.08zM450.56 691.2l-56.32 46.08 56.32-46.08zM711.68 471.04l35.84-30.72-35.84 30.72z" fill="#6D43CD" p-id="43375"></path><path d="M960 263.68l-212.48 176.64-35.84 30.72 10.24 10.24 25.6-23.04 217.6-181.76c-2.56-5.12-2.56-10.24-5.12-12.8zM394.24 737.28l-204.8 171.52c2.56 2.56 7.68 5.12 10.24 7.68l202.24-171.52 56.32-46.08-7.68-7.68-56.32 46.08zM458.24 698.88l-53.76 48.64 53.76-48.64zM721.92 481.28l25.6-23.04-25.6 23.04z" fill="#6C42CD" p-id="43376"></path><path d="M965.12 276.48l-217.6 181.76-25.6 23.04 10.24 10.24 17.92-12.8 225.28-189.44c-5.12-5.12-7.68-10.24-10.24-12.8zM404.48 747.52l-202.24 171.52c2.56 2.56 7.68 5.12 10.24 7.68l209.92-176.64 48.64-40.96-10.24-10.24-56.32 48.64z" fill="#6B42CE" p-id="43377"></path><path d="M729.6 488.96l17.92-12.8-17.92 12.8zM468.48 709.12l-46.08 40.96 46.08-40.96zM972.8 286.72l-225.28 189.44-17.92 12.8 10.24 10.24 7.68-5.12 230.4-194.56c-2.56-2.56-5.12-7.68-5.12-12.8zM422.4 750.08l-209.92 176.64c2.56 2.56 7.68 5.12 10.24 7.68l220.16-184.32 35.84-30.72-10.24-10.24-46.08 40.96z" fill="#6A41CE" p-id="43378"></path><path d="M478.72 719.36l-35.84 30.72 35.84-30.72zM739.84 499.2l7.68-5.12-7.68 5.12zM744.96 514.56l2.56-2.56-2.56 2.56z" fill="#6941CE" p-id="43379"></path><path d="M488.96 729.6l-25.6 20.48 25.6-20.48zM977.92 299.52l-230.4 194.56-7.68 5.12c2.56 2.56 5.12 7.68 5.12 12.8l2.56-2.56 235.52-199.68-5.12-10.24zM478.72 719.36l-35.84 30.72-220.16 184.32c5.12 2.56 7.68 5.12 12.8 7.68 5.12 2.56 7.68 5.12 12.8 7.68l238.08-199.68 12.8-10.24-10.24-10.24-10.24-10.24zM711.68 560.64l35.84-30.72-35.84 30.72zM499.2 739.84l-12.8 10.24 12.8-10.24z" fill="#6841CE" p-id="43380"></path><path d="M988.16 327.68c-2.56-5.12-2.56-10.24-5.12-12.8L747.52 512l-2.56 2.56c0 5.12-2.56 12.8-5.12 17.92l-28.16 28.16-112.64 112.64 145.92-122.88 245.76-207.36c2.56-5.12 0-10.24-2.56-15.36zM499.2 739.84l-12.8 10.24-238.08 199.68c5.12 2.56 7.68 5.12 12.8 7.68l248.32-207.36 5.12-2.56c-7.68-2.56-12.8-2.56-15.36-7.68zM512 747.52l-5.12 2.56 5.12-2.56zM601.6 670.72l145.92-122.88-145.92 122.88z" fill="#6740CE" p-id="43381"></path><path d="M993.28 340.48l-245.76 207.36-145.92 122.88-69.12 69.12c-5.12 5.12-15.36 7.68-20.48 7.68l-5.12 2.56-248.32 207.36c5.12 2.56 7.68 5.12 12.8 7.68l256-215.04 217.6-184.32 250.88-212.48c2.56-2.56 0-7.68-2.56-12.8z" fill="#6640CE" p-id="43382"></path><path d="M747.52 565.76l-217.6 184.32 217.6-184.32zM998.4 355.84l-250.88 212.48-217.6 184.32-256 215.04c5.12 2.56 10.24 5.12 12.8 7.68l263.68-220.16 197.12-166.4 256-215.04c-2.56-7.68-2.56-12.8-5.12-17.92zM747.52 583.68l-197.12 166.4 197.12-166.4z" fill="#653FCE" p-id="43383"></path><path d="M1003.52 368.64l-256 215.04-197.12 166.4-263.68 220.16c5.12 2.56 10.24 5.12 12.8 7.68l271.36-227.84 10.24-10.24 163.84-138.24L1008.64 384c-2.56-5.12-2.56-10.24-5.12-15.36zM747.52 601.6l-163.84 138.24z" fill="#643FCE" p-id="43384"></path><path d="M570.88 750.08l12.8-10.24zM1008.64 384l-261.12 217.6-163.84 138.24-10.24 10.24-271.36 227.84c5.12 2.56 10.24 5.12 12.8 5.12l279.04-232.96 28.16-23.04 128-107.52 263.68-222.72c-2.56-2.56-5.12-7.68-5.12-12.8zM747.52 619.52l-128 107.52z" fill="#633FCF" p-id="43385"></path><path d="M593.92 750.08l25.6-23.04zM1011.2 399.36l-263.68 222.72-128 107.52-28.16 23.04-279.04 232.96c5.12 2.56 10.24 2.56 15.36 5.12L614.4 750.08l133.12-112.64 266.24-222.72c0-5.12 0-10.24-2.56-15.36zM747.52 637.44L614.4 750.08l133.12-112.64z" fill="#623ECF" p-id="43386"></path><path d="M1013.76 414.72l-266.24 222.72-133.12 112.64-286.72 240.64c5.12 2.56 10.24 5.12 15.36 5.12l291.84-245.76 110.08-92.16 268.8-225.28c2.56-7.68 2.56-12.8 0-17.92z" fill="#613ECF" p-id="43387"></path><path d="M747.52 657.92l-110.08 92.16 110.08-92.16zM1016.32 430.08l-268.8 225.28-110.08 92.16-291.84 245.76c5.12 2.56 10.24 2.56 15.36 5.12l299.52-250.88 89.6-74.24 271.36-227.84c-2.56-5.12-2.56-10.24-5.12-15.36zM747.52 675.84l-89.6 74.24 89.6-74.24z" fill="#603ECF" p-id="43388"></path><path d="M1018.88 445.44l-271.36 227.84-89.6 74.24L358.4 1000.96c5.12 2.56 10.24 2.56 15.36 5.12l304.64-256 69.12-56.32 273.92-230.4c0-5.12 0-10.24-2.56-17.92zM747.52 693.76l-69.12 56.32 69.12-56.32z" fill="#5F3DCF" p-id="43389"></path><path d="M1021.44 463.36l-273.92 230.4-69.12 56.32-304.64 256c5.12 2.56 10.24 2.56 15.36 5.12l309.76-258.56 46.08-38.4 273.92-230.4c2.56-10.24 2.56-15.36 2.56-20.48zM701.44 750.08l46.08-38.4z" fill="#5E3DCF" p-id="43390"></path><path d="M701.44 750.08zM1021.44 481.28l-273.92 230.4-46.08 38.4-309.76 258.56c5.12 2.56 10.24 2.56 17.92 5.12l314.88-263.68 20.48-17.92 2.56-2.56L1024 496.64c0-5.12 0-10.24-2.56-15.36zM721.92 750.08l23.04-17.92z" fill="#5D3CCF" p-id="43391"></path><path d="M747.52 729.6l-2.56 2.56zM1024 496.64l-276.48 232.96-2.56 2.56-20.48 17.92L409.6 1013.76c5.12 0 12.8 2.56 17.92 2.56l317.44-266.24 2.56-2.56 276.48-230.4v-12.8-7.68z" fill="#5C3CCF" p-id="43392"></path><path d="M744.96 750.08l2.56-2.56-2.56 2.56zM747.52 747.52l-2.56 2.56-317.44 266.24c5.12 0 12.8 2.56 17.92 2.56l578.56-486.4v-17.92l-276.48 232.96z" fill="#5B3CD0" p-id="43393"></path><path d="M463.36 1021.44l558.08-468.48v-17.92l-578.56 486.4h20.48z" fill="#5A3BD0" p-id="43394"></path><path d="M483.84 1024l537.6-450.56c0-7.68 2.56-12.8 2.56-20.48L463.36 1021.44c7.68 0 12.8 0 20.48 2.56z" fill="#593BD0" p-id="43395"></path><path d="M501.76 1024l514.56-430.08c0-7.68 2.56-12.8 2.56-20.48L483.84 1024h17.92z" fill="#583AD0" p-id="43396"></path><path d="M524.8 1024l486.4-409.6c2.56-7.68 2.56-12.8 2.56-20.48L504.32 1024h20.48z" fill="#573AD0" p-id="43397"></path><path d="M547.84 1021.44l460.8-386.56c2.56-7.68 5.12-15.36 5.12-23.04l-486.4 409.6c5.12 2.56 12.8 2.56 20.48 0z" fill="#563AD0" p-id="43398"></path><path d="M573.44 1018.88l430.08-360.96c2.56-7.68 2.56-15.36 5.12-23.04l-460.8 386.56c7.68 0 17.92 0 25.6-2.56z" fill="#5539D0" p-id="43399"></path><path d="M599.04 1016.32l394.24-330.24c2.56-7.68 7.68-17.92 10.24-25.6l-430.08 358.4c7.68 0 17.92 0 25.6-2.56z" fill="#5439D0" p-id="43400"></path><path d="M627.2 1011.2l355.84-299.52c2.56-7.68 7.68-17.92 10.24-25.6L599.04 1016.32c10.24-2.56 17.92-2.56 28.16-5.12z" fill="#5339D1" p-id="43401"></path><path d="M657.92 1003.52L970.24 742.4c5.12-10.24 10.24-20.48 12.8-30.72L627.2 1011.2l30.72-7.68z" fill="#5238D1" p-id="43402"></path><path d="M693.76 990.72l256-215.04c7.68-10.24 12.8-23.04 17.92-33.28L657.92 1003.52c12.8-5.12 25.6-7.68 35.84-12.8z" fill="#5138D1" p-id="43403"></path><path d="M739.84 970.24l184.32-153.6c10.24-12.8 17.92-25.6 28.16-40.96l-256 215.04c12.8-7.68 28.16-12.8 43.52-20.48z" fill="#5037D1" p-id="43404"></path><path d="M824.32 919.04l33.28-28.16c25.6-23.04 46.08-48.64 66.56-74.24l-184.32 153.6c30.72-15.36 58.88-33.28 84.48-51.2z" fill="#4F37D1" p-id="43405"></path><path d="M857.6 890.88l-33.28 28.16c10.24-10.24 20.48-17.92 33.28-28.16z" fill="#4F37D1" p-id="43406"></path></svg>